# xmcd CD database file
#
# Track frame offsets:
#	150
#	22292
#	40227
#	61050
#	78522
#	97075
#	116775
#	148927
#
# Disc length: 2183 seconds
#
# Revision: 0
# Processed by: cddbd v1.5.1PL2 Copyright (c) Steve Scherf et al.
# Submitted via: CDex 1.50
#
DISCID=73088508
DTITLE=Carol Sloane - Something Cool
DYEAR=1979
DGENRE=Jazz
TTITLE0=Something Cool
TTITLE1=Jackie
TTITLE2=Baby, Don't You Quit Now
TTITLE3=Can't We Be Friends
TTITLE4=You're A Bad Influence On Me
TTITLE5=Cotton Tail
TTITLE6=Some Other Spring
TTITLE7=Tomorrow Mountain
EXTD=YEAR: 1979
EXTT0=
EXTT1=
EXTT2=
EXTT3=
EXTT4=
EXTT5=
EXTT6=
EXTT7=
PLAYORDER=
